<svg width="156" height="19" fill="none" xmlns="http://www.w3.org/2000/svg"><path d="M86.08 18.741V.621h3.481l6.456 10.717-2.262-.026 6.557-10.69h3.355V18.74h-3.736v-6.135c0-1.57.034-2.985.102-4.245.084-1.26.22-2.502.406-3.728l.432 1.217-5.21 8.206h-1.703l-5.083-8.154.407-1.269c.203 1.157.339 2.347.407 3.573.084 1.225.127 2.692.127 4.4v6.135H86.08zM70.963 18.741V.621H82.96v3.417H74.7v11.286h8.438v3.417H70.963zm1.78-7.585V7.843h8.997v3.313h-8.997zM61.717 19c-1.66 0-3.084-.302-4.27-.906-1.17-.621-2.178-1.519-3.025-2.692l2.39-2.744c.83 1.173 1.651 1.976 2.465 2.407.83.415 1.72.622 2.668.622a3.9 3.9 0 001.398-.233c.424-.156.754-.371.991-.648.254-.276.382-.595.382-.957 0-.276-.06-.527-.178-.751a1.776 1.776 0 00-.509-.621 3.251 3.251 0 00-.787-.492 5.447 5.447 0 00-1.017-.388 16.21 16.21 0 00-1.22-.285c-.949-.207-1.78-.475-2.49-.803-.712-.327-1.305-.724-1.78-1.19a4.57 4.57 0 01-1.067-1.605c-.22-.621-.33-1.312-.33-2.071 0-1.07.296-2.002.889-2.796.593-.81 1.38-1.44 2.364-1.89.982-.465 2.067-.698 3.253-.698 1.61 0 2.93.276 3.964.828a6.468 6.468 0 012.517 2.33l-2.44 2.433c-.526-.742-1.127-1.303-1.805-1.682a4.4 4.4 0 00-2.185-.57c-.543 0-1.026.078-1.45.233-.406.138-.72.354-.94.647a1.53 1.53 0 00-.33.984c0 .31.076.587.229.828.152.242.364.457.635.647.288.173.636.328 1.042.466.407.138.856.25 1.347.337.932.19 1.77.448 2.516.776.746.31 1.381.69 1.906 1.14.543.448.958.966 1.246 1.552.288.587.432 1.243.432 1.968 0 1.225-.288 2.269-.864 3.132-.576.863-1.373 1.527-2.39 1.993-1.016.466-2.202.699-3.557.699zM45.32 18.896c-1.44 0-2.727-.302-3.862-.906a6.98 6.98 0 01-2.644-2.536c-.643-1.088-.965-2.313-.965-3.676V.595h3.812v10.95c0 .725.16 1.38.483 1.967.339.57.788 1.027 1.347 1.372.559.345 1.169.518 1.83.518.694 0 1.321-.173 1.88-.518a3.702 3.702 0 001.347-1.372 3.861 3.861 0 00.509-1.967V.595h3.685v11.183c0 1.363-.322 2.588-.966 3.675a6.792 6.792 0 01-2.618 2.537c-1.118.604-2.397.906-3.837.906zM26.544 19c-1.304 0-2.516-.233-3.634-.699a8.764 8.764 0 01-2.872-1.941 9.409 9.409 0 01-1.88-2.977c-.441-1.14-.661-2.39-.661-3.754 0-1.346.22-2.588.66-3.727a9.408 9.408 0 011.881-2.977A8.575 8.575 0 0122.91.958c1.118-.466 2.33-.7 3.634-.7 1.305 0 2.5.234 3.584.7A8.575 8.575 0 0133 2.925a8.791 8.791 0 011.88 3.003c.458 1.139.687 2.373.687 3.701 0 1.346-.229 2.589-.686 3.728A8.847 8.847 0 0133 16.334a8.574 8.574 0 01-2.872 1.967c-1.084.466-2.279.699-3.584.699zm0-3.676a5.05 5.05 0 002.06-.414 5.121 5.121 0 001.626-1.19 5.426 5.426 0 001.093-1.813c.254-.69.38-1.45.38-2.278a6.47 6.47 0 00-.38-2.252 5.426 5.426 0 00-1.093-1.812c-.458-.517-1-.914-1.627-1.19a4.796 4.796 0 00-2.059-.44c-.745 0-1.44.146-2.084.44a4.9 4.9 0 00-1.652 1.19 5.307 5.307 0 00-1.067 1.812c-.254.69-.381 1.45-.381 2.278 0 1.087.22 2.063.66 2.925a5.493 5.493 0 001.83 2.02c.78.483 1.678.724 2.694.724zM11.234 18.741V.621h3.812v18.12h-3.812zM0 18.741V.621h3.812v18.12H0zm1.55-7.248V7.921h11.615v3.572H1.55zM140.039 18.741V.621h7.32c1.287 0 2.465.224 3.532.673a7.641 7.641 0 012.745 1.864c.763.794 1.347 1.751 1.754 2.873.407 1.105.61 2.321.61 3.65 0 1.346-.203 2.571-.61 3.676a8.356 8.356 0 01-1.754 2.873 8.105 8.105 0 01-2.745 1.864c-1.05.431-2.228.647-3.532.647h-7.32zm3.812-2.847l-.406-.648h3.787c.762 0 1.44-.129 2.033-.388a4.222 4.222 0 001.55-1.113c.441-.5.771-1.087.991-1.76.221-.69.331-1.458.331-2.304 0-.846-.11-1.605-.331-2.278a4.676 4.676 0 00-.991-1.76c-.423-.5-.94-.88-1.55-1.14-.593-.258-1.271-.387-2.033-.387h-3.864l.483-.596v12.374z" fill="white"/><path fill-rule="evenodd" clip-rule="evenodd" d="M114.75 0c-1.305 0-2.516.233-3.634.699a8.755 8.755 0 00-2.872 1.941 9.388 9.388 0 00-1.881 2.977c-.441 1.14-.661 2.39-.661 3.754 0 1.346.22 2.588.661 3.727a9.388 9.388 0 001.881 2.977 8.565 8.565 0 002.872 1.967c1.118.466 2.329.7 3.634.7 1.305 0 2.499-.234 3.584-.7a8.585 8.585 0 002.872-1.967 8.787 8.787 0 001.88-3.003c.456-1.133.684-2.36.686-3.682h.026v-.045c0-1.087.22-2.062.661-2.925a5.483 5.483 0 011.83-2.02c.779-.483 1.677-.724 2.694-.724.745 0 1.432.138 2.059.414.626.293 1.169.69 1.626 1.19a5.414 5.414 0 011.093 1.813c.254.69.381 1.45.381 2.278 0 .81-.127 1.561-.381 2.252a5.413 5.413 0 01-1.093 1.812c-.457.517-1 .914-1.626 1.19a4.8 4.8 0 01-2.059.44 4.968 4.968 0 01-2.065-.43 10.89 10.89 0 01-1.921 3.25c.116.055.233.107.352.157 1.118.466 2.329.7 3.634.7 1.305 0 2.499-.234 3.583-.7a8.565 8.565 0 002.872-1.967 8.774 8.774 0 001.881-3.003c.458-1.139.686-2.373.686-3.701 0-1.346-.228-2.589-.686-3.728a8.828 8.828 0 00-1.881-2.977A8.566 8.566 0 00132.566.7C131.482.233 130.288 0 128.983 0c-1.305 0-2.516.233-3.634.699a8.755 8.755 0 00-2.872 1.941 9.388 9.388 0 00-1.881 2.977c-.441 1.14-.661 2.39-.661 3.754 0 .104.001.207.004.31h-.036a6.336 6.336 0 01-.375 1.942 5.413 5.413 0 01-1.093 1.812 4.64 4.64 0 01-1.626 1.19 4.796 4.796 0 01-2.059.44c-.745 0-1.44-.146-2.084-.44a4.896 4.896 0 01-1.652-1.19 5.298 5.298 0 01-1.067-1.812c-.255-.69-.382-1.45-.382-2.278 0-1.087.221-2.062.661-2.925a5.5 5.5 0 011.83-2.02c.779-.483 1.677-.724 2.694-.724.746 0 1.432.138 2.059.414a12.707 12.707 0 011.902-3.221 9.67 9.67 0 00-.377-.17C117.249.233 116.055 0 114.75 0z" fill="white"/></svg>